<svg width="24" height="24" xmlns="http://www.w3.org/2000/svg" fill="#000000">

 <g>
  <title>Layer 1</title>
  <path id="svg_1" fill="none" d="m0,0l24,0l0,24l-24,0l0,-24z"/>
  <path fill="#f2821a" id="svg_2" d="m8.1,13.34l2.83,-2.83l-7.02,-7.01c-1.56,1.56 -1.56,4.09 0,5.66l4.19,4.18zm6.78,-1.81c1.53,0.71 3.68,0.21 5.27,-1.38c1.91,-1.91 2.28,-4.65 0.81,-6.12c-1.46,-1.46 -4.2,-1.1 -6.12,0.81c-1.59,1.59 -2.09,3.74 -1.38,5.27l-9.76,9.76l1.41,1.41l6.89,-6.87l6.88,6.88l1.41,-1.41l-6.88,-6.88l1.47,-1.47z"/>
 </g>
</svg>